<?xml version="1.0" encoding="utf-8"?>
<!-- Generator: Adobe Illustrator 22.1.0, SVG Export Plug-In . SVG Version: 6.00 Build 0)  -->
<svg version="1.1" id="Layer_1" xmlns="http://www.w3.org/2000/svg" xmlns:xlink="http://www.w3.org/1999/xlink" x="0px" y="0px"
	 viewBox="0 0 859.5 216" style="enable-background:new 0 0 859.5 216;" xml:space="preserve">
<style type="text/css">
	.st0{fill:#FFFFFF;}
	.st1{fill:#005C95;}
	.st2{fill:#9098A1;}
	.st3{fill:#1BA8E1;}
	.st4{fill:#82C342;}
	.st5{fill:#005D56;}
</style>
<g>
	<g>
		<path class="st1" d="M71.2,197.8H28.4l-6,16.5H0l37.1-95.8h25.6l36.9,95.8H77.3L71.2,197.8z M33.9,180.1h31.7l-15.8-44L33.9,180.1
			z"/>
		<path class="st1" d="M149.9,205.5c-5.5,6.8-13.1,10.5-21.4,10.5c-17.5,0-30.7-13.2-30.7-36.3c0-22.7,13.1-36.5,30.7-36.5
			c8.2,0,15.9,3.6,21.4,10.6v-35.3h18.4v95.8h-18.4V205.5z M149.9,167.3c-3.2-4.6-9.6-7.9-15.8-7.9c-10.3,0-17.5,8.2-17.5,20.3
			c0,11.9,7.2,20.1,17.5,20.1c6.2,0,12.6-3.3,15.8-7.9V167.3z"/>
		<path class="st1" d="M172.8,144.9h19.5l18.1,48.3l18.1-48.3h19.7l-27.9,69.4h-19.7L172.8,144.9z"/>
		<path class="st1" d="M282.1,143.2c20.7,0,34.8,15.5,34.8,38.2v4h-51.6c1.1,8.8,8.2,16.1,20,16.1c6.5,0,14.1-2.6,18.5-6.9l8,11.8
			c-7,6.5-17.8,9.6-28.6,9.6c-21.1,0-37.1-14.2-37.1-36.5C246.1,159.4,260.9,143.2,282.1,143.2z M265,173.1h34.2
			c-0.4-6.6-5-15.4-17.1-15.4C270.7,157.7,265.8,166.2,265,173.1z"/>
		<path class="st1" d="M371.1,172.3c0-9.6-5-12.9-12.8-12.9c-7.2,0-12.8,4-15.8,8.2v46.7h-18.2v-69.4h18.2v9
			c4.5-5.3,12.9-10.8,24.3-10.8c15.2,0,22.6,8.6,22.6,22.1v49h-18.2V172.3z"/>
		<path class="st1" d="M405.3,197v-36.2h-11.5v-15.9h11.5v-19h18.4v19h14.1v15.9h-14.1v31.3c0,4.3,2.3,7.6,6.3,7.6
			c2.7,0,5.3-1,6.3-2l3.9,13.8c-2.7,2.4-7.6,4.5-15.2,4.5C412.2,216,405.3,209.4,405.3,197z"/>
		<path class="st1" d="M527.2,174.1H482v40.2h-20.4v-95.8H482v37.6h45.2v-37.6h20.5v95.8h-20.5V174.1z"/>
		<path class="st1" d="M591.8,143.2c20.7,0,34.8,15.5,34.8,38.2v4H575c1.1,8.8,8.2,16.1,20,16.1c6.5,0,14.1-2.6,18.5-6.9l8,11.8
			c-7,6.5-17.8,9.6-28.6,9.6c-21.1,0-37.1-14.2-37.1-36.5C555.9,159.4,570.7,143.2,591.8,143.2z M574.7,173.1h34.2
			c-0.4-6.6-5-15.4-17.1-15.4C580.5,157.7,575.6,166.2,574.7,173.1z"/>
		<path class="st1" d="M684.5,205.5c-5.5,6.8-13.1,10.5-21.4,10.5c-17.5,0-30.7-13.2-30.7-36.3c0-22.7,13.1-36.5,30.7-36.5
			c8.2,0,15.9,3.6,21.4,10.6v-8.9h18.4v69.4h-18.4V205.5z M684.5,167.5c-3.2-4.6-9.6-7.9-15.8-7.9c-10.3,0-17.5,8-17.5,20.1
			c0,11.9,7.2,20.1,17.5,20.1c6.2,0,12.6-3.3,15.8-7.9V167.5z"/>
		<path class="st1" d="M715.2,118.5h18.2v95.8h-18.2V118.5z"/>
		<path class="st1" d="M752.3,197v-36.2h-11.5v-15.9h11.5v-19h18.4v19h14.1v15.9h-14.1v31.3c0,4.3,2.3,7.6,6.3,7.6
			c2.7,0,5.3-1,6.3-2l3.9,13.8c-2.7,2.4-7.6,4.5-15.2,4.5C759.2,216,752.3,209.4,752.3,197z"/>
		<path class="st1" d="M841.3,172c0-9.6-5-12.6-12.9-12.6c-7,0-12.6,4-15.8,8.2v46.7h-18.2v-95.8h18.2V154
			c4.5-5.3,13.1-10.8,24.4-10.8c15.2,0,22.5,8.3,22.5,21.8v49.3h-18.2V172z"/>
	</g>
	<g>
		<path class="st2" d="M634.3,45.1l5.6,35.7l-25.3,4l-5.6-35.7L634.3,45.1 M637.3,41.1l-32.2,5.1l6.7,42.6l32.2-5.1L637.3,41.1
			L637.3,41.1z"/>
		<path class="st1" d="M619,56.5l-27.3,4.3c-11.6,1.8-22.6-6.1-24.4-17.7L564,22.3c-0.6-3.6,1.9-7,5.5-7.5l20.8-3.3
			c11.6-1.8,22.6,6.1,24.4,17.7L619,56.5z"/>
		<path class="st3" d="M655,50.8l-27.3,4.3l-4.3-27.3c-1.8-11.6,6.1-22.6,17.7-24.4l20.8-3.3c3.6-0.6,7,1.9,7.5,5.5l3.3,20.8
			C674.5,38,666.6,49,655,50.8z"/>
		<path class="st4" d="M608.9,107.6l-16.5,2.6c-3.2,0.5-6.2-1.7-6.7-4.9l-2.9-18.6c-1.4-8.6,4.5-16.7,13.2-18.1l24.4-3.9l3.5,22.3
			C625.4,96.9,618.7,106.1,608.9,107.6z"/>
		<path class="st5" d="M669.5,98l-16.5,2.6c-9.8,1.6-19-5.1-20.6-14.9l-3.5-22.3l24.4-3.9c8.6-1.4,16.7,4.5,18.1,13.2l2.9,18.6
			C674.9,94.5,672.7,97.5,669.5,98z"/>
	</g>
</g>
</svg>
